<?xml version="1.0" encoding="UTF-8"?>
<!DOCTYPE svg PUBLIC "-//W3C//DTD SVG 1.0//EN" "http://www.w3.org/TR/2001/REC-SVG-20010904/DTD/svg10.dtd">
<!-- Creator: CorelDRAW X7 -->
<svg xmlns="http://www.w3.org/2000/svg" xml:space="preserve" width="8.26772in" height="11.6929in" version="1.0" style="shape-rendering:geometricPrecision; text-rendering:geometricPrecision; image-rendering:optimizeQuality; fill-rule:evenodd; clip-rule:evenodd"
viewBox="0 0 8268 11693"
 xmlns:xlink="http://www.w3.org/1999/xlink">
 <defs>
  <style type="text/css">
   <![CDATA[
    .fil1 {fill:#1A2229}
    .fil41 {fill:#291919}
    .fil17 {fill:#2A2D36}
    .fil46 {fill:#323D44}
    .fil48 {fill:#334146}
    .fil6 {fill:#35434A}
    .fil38 {fill:#36352B}
    .fil16 {fill:#363938}
    .fil7 {fill:#36454C}
    .fil51 {fill:#39464E}
    .fil21 {fill:#3A444B}
    .fil53 {fill:#424D55}
    .fil43 {fill:#464748}
    .fil54 {fill:#4A3533}
    .fil47 {fill:#4C443B}
    .fil42 {fill:#543A43}
    .fil36 {fill:#54636A}
    .fil13 {fill:#56666D}
    .fil34 {fill:#5B656B}
    .fil44 {fill:#6E5D63}
    .fil49 {fill:#737C83}
    .fil29 {fill:#76595B}
    .fil31 {fill:#776667}
    .fil45 {fill:#7C8489}
    .fil12 {fill:#7E6161}
    .fil27 {fill:#7E6163}
    .fil52 {fill:#838993}
    .fil35 {fill:#848485}
    .fil8 {fill:#848A8C}
    .fil24 {fill:#865B59}
    .fil5 {fill:#868A8D}
    .fil39 {fill:#89847C}
    .fil2 {fill:#8A8B8D}
    .fil25 {fill:#8D625B}
    .fil55 {fill:#96877D}
    .fil19 {fill:#989388}
    .fil18 {fill:#9B948A}
    .fil50 {fill:#A5968A}
    .fil32 {fill:#A95C51}
    .fil20 {fill:#B7ACA5}
    .fil15 {fill:#B97365}
    .fil33 {fill:#BC5D6B}
    .fil11 {fill:#BD616C}
    .fil22 {fill:#C57A7E}
    .fil10 {fill:#D48C84}
    .fil40 {fill:#DA9789}
    .fil3 {fill:#E3968B}
    .fil56 {fill:#E59B8B}
    .fil23 {fill:#E59B8B}
    .fil9 {fill:#E98979}
    .fil4 {fill:#EBCCB4}
    .fil37 {fill:#ECDED2}
    .fil26 {fill:#EDDCCC}
    .fil28 {fill:#F2DECA}
    .fil30 {fill:#F4DACB}
    .fil0 {fill:#F4DDCB}
    .fil14 {fill:#FAD5C7}
   ]]>
  </style>
 </defs>
 <g id="Layer_x0020_1">
  <metadata id="CorelCorpID_0Corel-Layer"/>
  <g id="_2405174880768">
   <path class="fil0" d="M662 638l6944 0 0 10417 -6944 0 0 -10417z"/>
   <path class="fil1" d="M2774 7177c49,4 108,14 140,29 -9,69 -7,51 -55,80 -33,-67 -56,-33 -85,-109zm-198 -1408c-96,69 98,57 -54,178l3 50 51 17 -29 69c0,0 -26,22 -27,22l-60 50 -19 42c71,13 36,17 114,2 19,-34 23,-43 63,-57 -5,22 -2,24 -15,46 -28,48 -8,14 -31,33 -45,72 -54,58 -119,83l12 54c47,2 73,-7 107,-17 -11,46 1,17 -17,49 -24,46 -53,45 -112,67 -6,15 -12,65 -36,81l-2 39c80,3 105,-41 167,-42 -40,14 -64,65 -91,89 -53,49 -88,32 -87,126 64,-1 75,-19 130,-31 -26,84 -48,28 -109,146 -18,33 2,3 -22,32 -21,27 -35,25 -37,70 69,10 92,-8 153,-21 -28,50 -37,55 -91,89 -34,23 -59,27 -53,79 94,26 105,-10 181,-15 -42,129 -150,165 -214,194 -112,53 -44,112 64,94 91,-14 68,-33 116,4 -41,19 -101,48 -128,83 110,7 246,-15 352,-4l96 6 -49 -60c109,-12 136,-3 176,-83 -40,-26 -19,-7 -48,-38l123 -20c-35,101 -88,133 -164,173l24 28 368 1 -31 -57c62,-8 84,27 188,18 -19,-117 -104,-70 -154,-182 71,18 83,51 153,28 4,-12 8,-5 1,-29 -13,-41 -20,-17 -46,-66 -77,-146 -69,-58 -116,-153 66,10 70,37 137,28 -2,-93 -39,-56 -120,-164 -11,-15 -13,-20 -24,-30 -25,-25 -2,-10 -23,-17 52,3 97,41 130,34 35,-7 5,9 32,-13 -22,-34 -32,-43 -34,-104 -66,-2 -136,-67 -152,-132 84,35 55,61 140,27 -25,-44 -52,-61 -94,-87 -19,-12 -70,-24 -57,-93l11 -27c78,43 30,76 123,65 4,-72 -29,-76 -74,-120l-25 -70c30,-17 37,-14 56,-42l-35 -67c-87,-96 24,-31 -5,-114 -13,-37 -38,-68 -39,-97 -3,-67 27,-5 5,-88 -9,-37 -50,-143 -74,-159 -7,21 -32,109 -33,121 -4,36 12,2 -8,60 -55,162 41,28 -21,142 -28,51 -44,37 -52,108l74 -5c-14,58 -46,95 -85,109l1 18c22,30 5,13 46,34 3,1 8,3 10,4 2,1 7,2 10,3 -29,68 -129,71 -67,122 38,32 33,3 51,45 -2,3 -7,4 -8,9l-65 54c-44,32 -47,14 -43,71 80,18 76,2 142,-16 -18,116 -149,120 -172,198 72,37 98,22 166,-12 -8,52 -32,84 -77,122 -43,36 -81,39 -92,102 58,26 99,-10 149,-25 -13,46 -65,97 -122,130 -53,-20 -166,-109 -188,-196 43,10 110,34 132,10 31,-35 7,20 -8,-75 -1,-3 -1,-8 -2,-10 -8,-56 -99,-49 -145,-161l133 30c20,-60 15,-32 -18,-62l-60 -59c-1,-3 -4,-10 -4,-8l-14 -26c-29,-48 -40,-35 -57,-86 44,23 18,29 71,37 59,-41 22,-18 96,-19 -16,-30 -61,-56 -70,-64 -16,-31 -14,-21 -44,-37 -3,-3 -6,-7 -8,-9l-28 -42c-10,-19 -15,-30 -26,-52l88 24c50,9 72,0 60,-52 -51,-23 -82,-46 -99,-96l-18 -28 82 -14c-10,-66 -52,-63 -94,-107l39 -21c26,-15 13,3 34,-24 -19,-36 3,0 -25,-35 -29,-37 -37,-37 -57,-90 25,-10 40,-4 73,-28 -28,-53 -42,-64 -65,-123 -12,-43 -32,-43 -55,-71l-18 26c-47,86 13,84 -68,77z"/>
   <path class="fil2" d="M4069 5772c48,36 83,42 106,102 -27,-6 -121,-32 -152,-53 -22,-14 -39,-39 -55,-59 -26,-35 -21,-17 -27,-64 60,11 84,41 128,74zm-879 -362c83,12 60,-21 124,-34 66,-14 44,10 44,10l46 16c2,4 5,9 6,13 13,27 28,58 16,87 65,36 116,88 171,146 156,165 96,85 153,139 16,15 114,172 118,185 17,45 11,85 25,131 15,47 30,45 48,82 -114,-33 -116,-186 -245,-215l32 97c-65,-7 -114,-57 -158,-92 -9,36 1,5 24,64 -95,69 -77,13 -40,28 45,18 6,-23 38,29 -29,121 -26,-25 -41,81 -106,-7 -171,26 -268,-19 -2,-1 -6,-2 -8,-3 -44,-27 -21,0 -32,-45 29,83 -82,18 5,114 26,-21 149,-11 207,-11 73,1 183,2 255,8 40,-20 582,-23 688,-16 51,15 208,9 218,27 6,36 -17,50 -45,54 -16,2 -35,0 -59,0 -41,1 -90,2 -128,1 -81,-1 -154,10 -236,7 -85,-3 -155,-15 -236,-17 -59,-1 -163,22 -205,-3 -66,6 -171,-10 -218,25l18 6c47,18 61,12 126,11 55,-1 97,9 139,17 -31,70 54,-32 -13,16l-80 29c-25,6 -96,20 -111,26 31,33 10,10 70,20 220,35 291,-13 313,-13 -23,-14 -15,-7 -43,-17l-31 -12c-3,-1 -7,-3 -10,-4l-78 -26c-4,-2 -9,-3 -13,-6 22,-27 56,-32 100,-30 2,0 6,1 8,1l709 21c84,4 58,-3 124,-33 60,7 48,20 98,20 51,1 104,-37 247,-22l384 29 188 -53c-189,7 -326,-24 -514,-16 -91,4 -173,-4 -264,2 -81,6 -160,21 -243,21l3 -54 1160 -5 182 -130c-66,5 -56,-1 -105,-39 -23,-18 -44,-33 -79,-46 -76,-25 -142,2 -202,32 -72,13 -166,-34 -227,-75 -154,-103 -49,-42 -212,-95 -230,-76 -288,-286 -407,-163 74,-1 65,-21 102,44 39,58 231,189 300,224 59,30 57,25 90,76 -88,42 -189,18 -276,4 58,54 122,43 144,66 39,41 17,56 16,69l-214 -10c-1,2 -7,14 -8,11 -2,-3 -7,8 -10,12l-286 -27c8,-52 -12,9 16,-23 21,-23 32,-11 32,-61l-26 55 -28 -14c-3,-1 -6,-2 -8,-3l-48 -18c-2,-6 -9,-3 -13,-6 7,-127 54,-78 65,-138 -36,-4 -43,-7 -76,-3 0,0 -46,10 -53,12 12,-58 6,-36 66,-79l41 -32 54 39c90,-84 -12,-25 28,-144 48,-1 52,42 83,41l14 -103c-119,31 -136,2 -251,58 -60,29 -135,75 -196,84 -78,-87 -153,-96 -242,-174l-105 -42 -206 49c-72,-74 -330,-301 -366,-379 -49,9 -80,19 -111,43 -7,5 -34,29 -37,32 -30,32 -10,6 -27,36z"/>
   <path class="fil3" d="M5115 2991c-109,105 -308,18 -474,85 -63,25 -101,5 -132,62 49,27 117,9 180,6l413 4c69,30 263,-5 377,18 -37,28 -131,9 -179,11l-138 15c-34,15 -19,-1 -39,29 22,13 -2,4 39,14l237 20c49,-3 70,-15 88,15 45,-4 110,5 139,28 112,-9 165,-2 271,7 91,8 196,-4 292,-3l73 -26c-24,-177 0,-194 4,-360 3,-70 -2,-115 11,-179 20,-102 -14,-60 -18,-154l-15 43c-162,-42 -176,49 -267,102 -172,101 -224,44 -342,120 -98,62 -146,39 -232,56 -95,19 -183,79 -288,87z"/>
   <path class="fil4" d="M4042 5671c89,78 164,87 242,174 61,-9 136,-55 196,-84 115,-56 132,-27 251,-58l-5 8c119,-123 177,87 407,163 163,53 58,-8 212,95 61,41 155,88 227,75 1,-87 19,-150 0,-245l-502 -41c73,-40 171,-17 232,-58 75,7 57,-8 105,-38 33,-21 8,-5 36,-16 33,-13 119,-11 -9,-183 -58,-78 -117,-157 -192,-212 -319,-232 -688,-240 -1021,-19 -154,102 -265,251 -284,397l105 42z"/>
   <path class="fil5" d="M3190 5410c-17,7 -3,-2 -30,18 -107,82 -152,214 -314,255 -58,15 -78,44 -129,54 23,59 37,70 65,123 -33,24 -48,18 -73,28 20,53 28,53 57,90 28,35 6,-1 25,35 -21,27 -8,9 -34,24l-39 21c42,44 84,41 94,107l-82 14 18 28 273 -10c8,-71 24,-57 52,-108 62,-114 -34,20 21,-142 20,-58 4,-24 8,-60 1,-12 26,-100 33,-121 24,16 65,122 74,159 22,83 -8,21 -5,88 1,29 26,60 39,97 11,45 -12,18 32,45 2,1 6,2 8,3 97,45 162,12 268,19 15,-106 12,40 41,-81 -32,-52 7,-11 -38,-29 -37,-15 -55,41 40,-28 -23,-59 -33,-28 -24,-64 -114,-68 -110,-121 -144,-199 -12,-28 -5,-14 -18,-35 -9,-17 -14,-21 -21,-33 2,-3 7,-4 9,-5l57 -20c2,-3 7,-1 9,-3 -51,-28 -48,-61 -87,-116 -54,-75 -28,-74 -40,-164 40,9 76,52 91,102 12,-29 -3,-60 -16,-87 -1,-4 -4,-9 -6,-13l-46 -16c0,0 22,-24 -44,-10 -64,13 -41,46 -124,34z"/>
   <path class="fil6" d="M2407 6538l-37 29c-18,-27 -30,-51 -42,-72 89,12 55,8 79,43zm-288 -185c-4,161 -7,74 -21,138l31 413c10,73 -33,449 15,567 87,27 524,30 592,-1 -106,-11 -242,11 -352,4 27,-35 87,-64 128,-83 -48,-37 -25,-18 -116,-4 -108,18 -176,-41 -64,-94 64,-29 172,-65 214,-194 -76,5 -87,41 -181,15 -6,-52 19,-56 53,-79 54,-34 63,-39 91,-89 -61,13 -84,31 -153,21 2,-45 16,-43 37,-70 24,-29 4,1 22,-32 61,-118 83,-62 109,-146 -55,12 -66,30 -130,31 -1,-94 34,-77 87,-126 27,-24 51,-75 91,-89 -62,1 -87,45 -167,42l2 -39c24,-16 30,-66 36,-81 59,-22 88,-21 112,-67 18,-32 6,-3 17,-49 -34,10 -60,19 -107,17l-12 -54 -22 -1c-26,88 -23,6 -51,85l32 17c3,1 8,2 10,2 4,2 20,3 25,4 -27,33 -28,36 -79,47l-63 -72c43,-47 34,6 33,-60 -145,-49 -187,14 -219,27z"/>
   <path class="fil7" d="M6016 7391c38,-15 43,-24 73,-48l346 -329c-4,-11 -14,-27 -14,-36 -6,-60 -3,10 8,-32 7,-26 29,38 4,-37 -7,-20 -12,-17 -27,-26l19 -21c1,-1 5,-4 6,-6 35,-30 7,-2 6,0 -13,-54 -26,-49 -35,-83 -3,-10 -10,-92 -10,-112 -2,-4 -7,-14 -11,-19 -16,-18 -9,-7 -20,-12 -91,67 -3,115 -84,175 5,88 -15,-70 11,30 11,44 14,-33 4,26 -1,7 18,26 -25,16 -2,0 -82,-52 -88,-58 50,-33 24,5 56,-42 -40,-46 -26,-8 -42,-59l-10 -76c-3,-36 -22,-95 -56,-109 -33,56 -24,113 -42,172 -16,52 -21,31 -28,63 -15,70 9,-14 9,78 -130,-48 -16,-164 -113,-230 -11,12 -37,51 -46,72 -58,128 -31,88 -29,121 4,84 -47,-17 12,112 -51,12 -25,-8 -59,37 36,28 23,8 65,26 -80,8 -59,3 -127,-20 -3,-7 17,-6 -12,-20l70 -42c-32,-35 -24,-28 -73,-35 18,-64 11,-19 41,-76l-57 -146c0,0 3,-10 1,-30 -4,-38 -6,-36 -22,-61 -42,19 -49,38 -56,112l-23 112c-40,-6 -57,-25 -57,-39l7 -30c1,-43 0,-10 -9,-40 -27,-96 -3,-126 -56,-159 -38,26 -25,-3 -39,66 -9,41 -12,41 5,69l-44 21 5 44c1,3 4,7 5,9l12 16c-26,23 -28,22 -48,56 13,33 37,11 52,59 -42,17 -45,23 -77,45 10,47 15,42 38,63 -2,2 -6,5 -8,7l-52 48c76,59 33,-2 50,42 -62,23 -76,16 -134,-1 62,-32 36,20 76,-41 -29,-57 -33,-34 -82,-60l68 -29c-48,-82 -39,-3 -49,-105 -7,-71 8,-49 -18,-104l-21 -23c-22,-17 4,-6 -40,-21 -5,61 -15,136 -31,181 -59,169 28,39 -29,134 -29,-18 -2,6 -22,-20 -2,-3 -13,-24 -15,-27l-33 -59 -59 73c-2,3 -3,7 -4,10 -60,148 22,89 -46,163 22,57 7,-5 36,47l-56 55 56 21c-50,57 -64,21 -75,88l-60 -8c7,-30 7,-19 17,-58 -22,-13 -42,-18 -70,-36l39 -14c16,-4 19,-1 38,-5 -16,-65 -1,-24 -23,-30 -61,-129 0,-46 1,-103 2,-42 2,-4 -77,-70 31,-15 31,0 68,-28 -21,-48 -10,-32 -53,-50 30,-116 12,-37 -18,-164 -28,-116 7,-135 -66,-142 9,62 -8,26 -24,73 -6,19 8,49 -16,113 -1,4 -2,8 -4,11 -36,77 -44,37 -48,35 -1,-3 -2,-8 -2,-10 -1,-3 -2,-8 -2,-11l-13 -72c-19,-57 -10,-41 -52,-53 -55,193 19,94 -58,173 5,23 7,22 12,32 2,3 14,20 16,24 -39,17 -36,15 -55,55 19,28 42,28 56,42 -38,43 -41,21 -75,69 7,21 3,30 56,41l-70 63c-3,-1 -47,-15 -57,-20 -10,-12 12,-9 -37,-23 13,-17 8,-11 24,-26l-1 -58c-32,-59 7,-187 -85,-207 -33,75 6,104 -46,150 -30,-35 -18,-64 -25,-107 -5,-30 -21,-64 -45,-77 -40,24 -54,78 -67,116 -36,108 20,39 -19,122 -7,-1 -120,-50 -135,-64l80 -22c-16,-76 1,-16 -79,-68l56 -42c-39,-56 -32,4 -44,-84 -8,-60 5,-68 -5,-99 -66,-33 6,-44 -63,-61l-13 64c-10,113 -68,213 -73,206 -1,-3 -5,8 -9,11 15,-93 16,-126 -31,-189 -45,17 -81,112 -88,157l6 39c-1,56 -25,7 -12,66 7,33 9,-51 13,44 -85,-13 -51,-44 -96,-43 29,-88 31,18 59,-69l-82 -42c4,-3 34,-16 56,-55l-86 -42c52,-12 34,9 86,-33l-3 -43c-34,-15 -59,-27 -99,-31 4,-2 9,-5 12,-6 3,-2 8,-5 12,-7l45 -33c-21,-47 -18,-37 -70,-46l55 -69c-30,-16 -57,-21 -58,-120 0,-102 -13,-13 -30,-98l-18 -6 -15 -7c-17,67 -21,164 -48,209 -110,-22 -25,-83 -98,-177 -73,23 6,43 -76,79 45,44 78,48 74,120 -93,11 -45,-22 -123,-65l-11 27c-13,69 38,81 57,93 42,26 69,43 94,87 -85,34 -56,8 -140,-27 16,65 86,130 152,132 2,61 12,70 34,104 -27,22 3,6 -32,13 -33,7 -78,-31 -130,-34 21,7 -2,-8 23,17 11,10 13,15 24,30 81,108 118,71 120,164 -67,9 -71,-18 -137,-28 47,95 39,7 116,153 26,49 33,25 46,66 7,24 3,17 -1,29 -70,23 -82,-10 -153,-28 50,112 135,65 154,182 -104,9 -126,-26 -188,-18l31 57 436 9 184 -9c56,-22 480,-24 585,-19l154 -1c5,0 8,1 13,1l26 8c4,1 9,2 13,4 118,10 299,5 420,0 66,-2 136,-14 198,-20 70,-7 132,9 197,-8 39,22 234,13 299,13 105,0 204,18 229,-64z"/>
   <path class="fil8" d="M3643 6758c62,-1 141,-44 257,-50l13 -64c69,17 -3,28 63,61 147,-5 228,-246 429,-253 101,-107 282,-115 417,-76l70 28c102,-35 224,46 324,73 14,-16 6,-9 24,-23 65,-49 170,-86 206,-122l-384 -29c-143,-15 -196,23 -247,22 -50,0 -38,-13 -98,-20 -66,30 -40,37 -124,33l-709 -21c-2,0 -6,-1 -8,-1 -44,-2 -78,3 -100,30 4,3 9,4 13,6l78 26c3,1 7,3 10,4l31 12c28,10 20,3 43,17 -22,0 -93,48 -313,13 -60,-10 -39,13 -70,-20 15,-6 86,-20 111,-26l80 -29c67,-48 -18,54 13,-16 -42,-8 -84,-18 -139,-17 -65,1 -79,7 -126,-11 17,85 30,-4 30,98 1,99 28,104 58,120l-55 69c52,9 49,-1 70,46l-45 33c-4,2 -9,5 -12,7 -3,1 -8,4 -12,6 40,4 65,16 99,31l3 43z"/>
   <path class="fil9" d="M5542 4640c-10,-25 -11,-21 -22,-59 83,4 61,20 120,39 59,19 68,1 113,-4 1,73 -26,65 -77,93 -38,22 -58,52 -105,20 6,-31 66,-62 -29,-89zm900 -90l88 -77 56 -54 -326 -323c-53,-55 -300,-277 -352,-287 -61,-12 -244,-7 -316,-6 -126,2 -186,-11 -293,-23 -201,-23 -433,3 -620,-17 -47,37 -167,37 -216,-1 -276,0 -517,-41 -783,-40l-20 -1 -95 -5c12,65 5,38 80,51 101,56 71,76 97,96 86,38 103,11 156,102 172,-9 45,-66 250,30 105,55 -34,-46 154,74l102 49c74,46 170,132 290,106l383 53c-8,30 -19,44 -95,46 -189,6 -30,-57 -356,27 -155,40 -293,0 -408,10l-115 28c85,38 140,7 221,23 -16,58 -51,69 -120,65 -69,-3 -114,-2 -181,-3 -148,-1 -190,-50 -341,7 -111,28 -257,-19 -320,-4 -40,10 -22,15 -70,30 -67,21 -175,13 -244,8 -133,-23 -160,-48 -305,-26 -96,16 -233,-53 -307,-17 35,26 52,25 114,29 120,9 281,3 312,69l-58 22c-17,3 -36,5 -57,9 -170,37 -276,14 -322,56 -169,28 -160,5 -315,-4l-49 4 -1 34 21 73c2,36 -3,48 4,90 292,23 1021,27 1200,51 101,14 290,26 395,18 132,9 247,-11 383,-1 127,9 269,9 404,13l166 25 1 -1c179,9 384,21 558,4 142,-13 379,18 539,24 131,5 152,25 232,-46 63,-56 103,-73 163,-129 87,-81 213,-206 316,-261z"/>
   <path class="fil10" d="M2398 2990c-36,12 -78,27 -108,42 -30,16 -56,44 -87,64 20,16 -49,41 41,5 121,5 160,18 202,126 26,65 -11,17 61,62 79,49 -2,82 151,23 258,26 294,-44 323,50 -1,2 -4,4 -5,8l-22 22c-1,2 -6,5 -9,7l1 65c58,5 97,25 124,29 46,6 48,-30 133,-24 141,9 152,122 167,151 58,0 69,-8 118,12 -52,0 -83,10 -132,10 -53,1 -87,-8 -143,-4 67,31 352,14 454,12 -19,-49 7,-12 -42,-45 -1,-1 -22,-13 -25,-15 -22,-16 -13,-3 -30,-27l-14 -50c-42,-23 -13,-17 -67,-39 -28,-11 -45,-10 -67,-28 -35,-29 -28,-72 -86,-121 -122,-103 -193,-62 -352,-34l11 -40c-124,-52 -42,-95 -250,-84 -17,-25 -31,-53 -57,-85 -75,-95 -171,-109 -290,-92z"/>
   <path class="fil11" d="M1776 3013c-33,7 -13,-7 -23,33l333 278c134,142 94,109 237,222 40,31 62,35 58,88 28,-33 28,-78 60,-119 40,-50 118,-50 119,-55 1,-5 -78,-13 -63,-55 62,-23 46,14 116,8 17,-46 22,-66 45,-101 -153,59 -72,26 -151,-23 -72,-45 -35,3 -61,-62 -42,-108 -81,-121 -202,-126l-41 28c-35,-51 -6,-56 -68,-102 -82,-61 -169,-52 -255,-18 -57,23 -35,2 -104,4z"/>
   <path class="fil12" d="M3787 2135c-90,15 -97,28 -94,126 2,49 8,154 18,199l0 5c102,3 950,-4 959,-10l14 -283c-153,-30 -244,-66 -427,-82l-70 183c-41,99 -49,54 -67,171 -26,0 -239,-34 -266,-55 -47,-37 -80,-170 -67,-254z"/>
   <path class="fil13" d="M3976 6705c10,31 -3,39 5,99 12,88 5,28 44,84l-56 42c80,52 63,-8 79,68l-80 22c15,14 128,63 135,64 39,-83 -17,-14 19,-122 13,-38 27,-92 67,-116 24,13 40,47 45,77 7,43 -5,72 25,107 52,-46 13,-75 46,-150 92,20 53,148 85,207l1 58c-16,15 -11,9 -24,26 49,14 27,11 37,23 10,5 54,19 57,20l70 -63c-53,-11 -49,-20 -56,-41 34,-48 37,-26 75,-69 -14,-14 -37,-14 -56,-42 19,-40 16,-38 55,-55 -2,-4 -14,-21 -16,-24 -5,-10 -7,-9 -12,-32 77,-79 3,20 58,-173 42,12 33,-4 52,53l13 72c0,3 1,8 2,11 0,2 1,7 2,10 4,2 12,42 48,-35 2,-3 3,-7 4,-11 24,-64 10,-94 16,-113 16,-47 33,-11 24,-73 73,7 38,26 66,142 30,127 48,48 18,164 43,18 32,2 53,50 -37,28 -37,13 -68,28 79,66 79,28 77,70 -1,57 -62,-26 -1,103 22,6 7,-35 23,30 -19,4 -22,1 -38,5l-39 14c28,18 48,23 70,36 -10,39 -10,28 -17,58l60 8c11,-67 25,-31 75,-88l-56 -21 56 -55c-29,-52 -14,10 -36,-47 68,-74 -14,-15 46,-163 1,-3 2,-7 4,-10l59 -73 33 59c2,3 13,24 15,27 20,26 -7,2 22,20 57,-95 -30,35 29,-134 16,-45 26,-120 31,-181 44,15 18,4 40,21l21 23c26,55 11,33 18,104 10,102 1,23 49,105l-68 29c49,26 53,3 82,60 -40,61 -14,9 -76,41 58,17 72,24 134,1 -17,-44 26,17 -50,-42l52 -48c2,-2 6,-5 8,-7 -23,-21 -28,-16 -38,-63 32,-22 35,-28 77,-45 -15,-48 -39,-26 -52,-59 20,-34 22,-33 48,-56l-12 -16c-1,-2 -4,-6 -5,-9l-5 -44 44 -21c-17,-28 -14,-28 -5,-69 14,-69 1,-40 39,-66 53,33 29,63 56,159 9,30 10,-3 9,40l-7 30c0,14 17,33 57,39l23 -112c7,-74 14,-93 56,-112 16,25 18,23 22,61 2,20 -1,30 -1,30l57 146c-30,57 -23,12 -41,76 49,7 41,0 73,35l-70 42c29,14 9,13 12,20 68,23 47,28 127,20 -42,-18 -29,2 -65,-26 34,-45 8,-25 59,-37 -59,-129 -8,-28 -12,-112 -2,-33 -29,7 29,-121 9,-21 35,-60 46,-72 97,66 -17,182 113,230 0,-92 -24,-8 -9,-78 7,-32 12,-11 28,-63 18,-59 9,-116 42,-172 34,14 53,73 56,109l10 76c16,51 2,13 42,59 -32,47 -6,9 -56,42 6,6 86,58 88,58 43,10 24,-9 25,-16 10,-59 7,18 -4,-26 -26,-100 -6,58 -11,-30 81,-60 -7,-108 84,-175 -31,-69 -119,-119 -177,-167 -14,-11 -18,-17 -30,-25 -22,-14 -13,-10 -35,-15 -28,-47 -120,-128 -182,-146 -53,-14 -243,-6 -303,2l-188 53c-36,36 -141,73 -206,122 -18,14 -10,7 -24,23 -100,-27 -222,-108 -324,-73l-70 -28c-135,-39 -316,-31 -417,76 -201,7 -282,248 -429,253z"/>
   <path class="fil14" d="M1924 5451c71,-68 120,-122 197,-188 48,-40 71,-49 109,-84 214,-204 219,-157 418,-159 131,-2 239,19 374,-3 111,-3 226,2 334,-1 90,-3 276,25 333,-3l-9 -91c-105,8 -294,-4 -395,-18 -179,-24 -908,-28 -1200,-51 -7,-42 -2,-54 -4,-90l-21 -73c-29,48 -15,181 17,226 2,3 15,17 15,18l111 -3c19,21 19,3 28,43 61,-92 207,-44 333,-44l-59 53c-2,2 -7,10 -10,13 -115,-6 -124,4 -216,105 -92,100 -136,38 -183,120 -42,73 -52,70 -136,148 -39,36 -44,56 -36,82z"/>
   <path class="fil15" d="M3597 9357c0,0 -11,25 -21,33l-23 -28 3 32 -37 -3c-18,24 -41,31 -66,52 -26,20 -40,42 -61,64 -45,47 -91,65 -70,157 87,84 560,96 674,16l-6 -106c-36,-72 14,-38 -52,-86 -59,-44 -21,-4 -63,-63 -60,-83 -73,-62 -184,-67 -22,13 4,8 -23,7 -2,0 -19,-8 -23,-11 -4,29 10,5 -11,24 -31,-11 -18,2 -37,-21z"/>
   <path class="fil16" d="M4590 8837c-22,73 -53,146 -60,240 -8,94 -6,188 -9,281 -48,-102 -100,-318 -187,-343 16,56 100,180 127,326 -37,-28 -41,-60 -77,-88 -24,39 32,114 51,167 26,68 36,135 60,203 -9,58 -7,62 49,75 24,6 104,7 129,7l18 -58c32,-116 57,-135 113,-229 46,-78 76,-155 141,-208 18,-36 14,-40 54,-58 -35,-48 12,-11 -23,-12 -33,0 -68,75 -127,100l-116 205c-19,35 -21,36 -44,59 6,-119 -1,-352 93,-410 7,-40 25,-61 47,-94 2,-3 27,-41 28,-43 19,-65 25,-24 -11,-46 -23,52 -78,109 -104,173l-52 95 -15 -98 -11 -69c-17,23 -13,-22 -16,55l13 182c-3,50 -40,145 -69,189 -15,-41 -47,-448 -6,-455 -7,-122 59,-146 75,-233 -44,17 -43,36 -71,87z"/>
   <path class="fil17" d="M2615 3408c-70,6 -56,-26 -118,-3 -14,40 45,48 45,52 0,5 -59,4 -101,58 -32,41 -32,86 -60,119l-14 49c-15,24 -41,52 -24,94 22,56 42,33 96,53 35,-64 63,-103 114,-148 10,-29 -11,-13 30,-46l77 -39 25 39 14 32c59,1 118,-4 163,-35 15,-17 21,-21 33,-48l-140 -67c92,-69 177,-69 190,-119 3,-2 8,-5 9,-7l22 -22c1,-4 4,-6 5,-8 -9,-31 -19,-44 -37,-48 -27,-8 -72,4 -159,4 -57,1 -98,-19 -127,-6 -18,8 -29,58 -43,96z"/>
   <path class="fil18" d="M3054 9384c-38,45 3,26 -47,56 11,65 4,20 39,80 -69,0 -66,3 -92,26l59 -6 48 68 -36 34c90,-28 -23,-49 122,-35 52,5 81,10 142,11l33 46c-21,-92 25,-110 70,-157 21,-22 35,-44 61,-64 25,-21 48,-28 66,-52 -19,-32 -27,-36 -39,-76l73 47 23 28c10,-8 21,-33 21,-33l-78 -199c-6,-11 -10,-17 -17,-27 -12,-17 -15,-18 -23,-26 -5,5 -28,33 -28,33 42,136 134,69 68,162 -58,-13 21,-48 -152,-51 41,-41 46,-11 37,-60 -134,-34 -214,25 -219,51 -19,97 -20,12 -36,93 64,29 73,48 117,75 -78,9 -74,-15 -106,-31 -42,-20 -49,-2 -106,7z"/>
   <path class="fil8" d="M4942 6059c-31,-37 -55,-14 -88,-57 -44,-57 14,-52 -62,-86 2,-2 6,-4 7,-5 2,-1 6,-4 8,-6 2,-1 5,-5 7,-7 21,-23 2,13 19,-31 -15,-14 -77,-95 -5,-112 -37,-65 -28,-45 -102,-44l5 -8 -14 103c-31,1 -35,-42 -83,-41 -40,119 62,60 -28,144l-54 -39 -41 32c-60,43 -54,21 -66,79 7,-2 53,-12 53,-12 33,-4 40,-1 76,3 -11,60 -58,11 -65,138 4,3 11,0 13,6l48 18c2,1 5,2 8,3l28 14 26 -55c0,50 -11,38 -32,61 -28,32 -8,-29 -16,23l286 27c3,-4 8,-15 10,-12 1,3 7,-9 8,-11l214 10c1,-13 23,-28 -16,-69 -22,-23 -86,-12 -144,-66z"/>
   <path class="fil19" d="M4691 9647c109,-15 431,-34 509,-2 19,-98 42,-39 70,-132 98,-45 134,-69 246,69 2,2 5,7 8,9 9,-72 9,-9 14,-84l-93 -28c-1,-56 -16,-67 -60,-88 -30,-14 -62,-26 -97,-45 54,-98 -18,-106 -97,-124 -58,-14 -50,-29 -96,1 -76,50 11,36 -72,48 -4,-39 3,-9 -34,-29 -52,-28 -31,11 -44,-32 -65,53 -95,130 -141,208 -56,94 -81,113 -113,229z"/>
   <path class="fil20" d="M3570 5975c44,35 93,85 158,92l-32 -97c129,29 131,182 245,215 -18,-37 -33,-35 -48,-82 -14,-46 -8,-86 -25,-131 -4,-13 -102,-170 -118,-185 -57,-54 3,26 -153,-139 -55,-58 -106,-110 -171,-146 -15,-50 -51,-93 -91,-102 12,90 -14,89 40,164 39,55 36,88 87,116 -2,2 -7,0 -9,3l-57 20c-2,1 -7,2 -9,5 7,12 12,16 21,33 13,21 6,7 18,35 34,78 30,131 144,199z"/>
   <path class="fil21" d="M2805 6471c9,8 54,34 70,64 -74,1 -37,-22 -96,19l100 -10c-35,73 -45,47 -96,93l60 59c33,30 38,2 18,62l-133 -30c46,112 137,105 145,161 1,2 1,7 2,10 15,95 39,40 8,75 -22,24 -89,0 -132,-10 22,87 135,176 188,196 57,-33 109,-84 122,-130 -50,15 -91,51 -149,25 11,-63 49,-66 92,-102 45,-38 69,-70 77,-122 -68,34 -94,49 -166,12 23,-78 154,-82 172,-198 -66,18 -62,34 -142,16 -4,-57 -1,-39 43,-71l65 -54c1,-5 6,-6 8,-9 -18,-42 -13,-13 -51,-45 -62,-51 38,-54 67,-122 -3,-1 -8,-2 -10,-3 -2,-1 -7,-3 -10,-4 -41,-21 -24,-4 -46,-34 10,58 -1,67 -56,70l0 -84 -77 -10c-10,50 -9,37 -3,95 -23,11 -30,16 -45,29 7,22 5,12 13,27 1,1 12,15 22,37l-60 -12z"/>
   <path class="fil22" d="M4216 3083c33,30 -6,5 51,32 29,14 18,8 43,16 -73,66 -421,24 -452,7 42,-22 95,-26 140,-55 56,0 79,-15 111,-15 52,0 48,27 107,15zm1973 219c-96,-1 -201,11 -292,3 -106,-9 -159,-16 -271,-7 -29,-23 -94,-32 -139,-28 -18,-30 -39,-18 -88,-15l-237 -20c-41,-10 -17,-1 -39,-14 20,-30 5,-14 39,-29l138 -15c48,-2 142,17 179,-11 -114,-23 -308,12 -377,-18l-413 -4c-63,3 -131,21 -180,-6 31,-57 69,-37 132,-62 166,-67 365,20 474,-85 105,-8 193,-68 288,-87 86,-17 134,6 232,-56 118,-76 170,-19 342,-120 91,-53 105,-144 267,-102l15 -43 -2 -92c-232,-25 -555,-22 -790,-14 -255,10 -542,-17 -797,-22 -83,54 -1323,-25 -1578,-10 -318,18 -382,-6 -611,3 -86,3 -291,192 -366,255 -66,55 -107,103 -162,156l-177 154c69,-2 47,19 104,-4 86,-34 173,-43 255,18 62,46 33,51 68,102l41 -28c-90,36 -21,11 -41,-5 31,-20 57,-48 87,-64 30,-15 72,-30 108,-42 119,-17 215,-3 290,92 26,32 40,60 57,85 208,-11 126,32 250,84l-11 40c159,-28 230,-69 352,34 58,49 51,92 86,121 22,18 39,17 67,28 54,22 25,16 67,39l14 50c17,24 8,11 30,27 3,2 24,14 25,15 49,33 23,-4 42,45l-7 71 20 1 -8 -72c85,-3 157,-11 239,-13 88,-3 189,12 252,12 67,0 154,-14 247,-7 84,7 156,20 250,17 -3,55 5,64 12,109l-209 -6c49,38 169,38 216,1l8 -99c200,-29 1163,4 1462,-4 144,-4 77,-17 97,-144 13,-84 15,-142 16,-240l-73 26z"/>
   <g>
    <path class="fil23" d="M3356 5016c-135,22 -577,2 -708,4 -199,2 -204,-45 -418,159 -97,91 -203,172 -306,272l-170 145 469 427c139,-70 224,46 276,-65l0 -11 23 0c152,-121 -42,-109 54,-178 74,-200 -45,7 50,-250 15,-39 33,-50 50,-60l53 244c-5,43 3,-23 -12,34 51,-10 71,-39 129,-54 162,-41 207,-173 314,-255 27,-20 13,-11 30,-18 17,-30 -3,-4 27,-36 1,-1 29,-32 63,-50 38,-18 82,-23 85,-25l-9 -283zm1983 338c20,32 46,43 95,109 128,172 42,170 9,183 -28,11 -3,-5 -36,16 -48,30 -30,45 -105,38 -61,41 -159,18 -232,58l502 41c19,95 1,158 0,245 60,-30 126,-57 202,-32 35,13 56,28 79,46 49,38 39,44 105,39 159,-34 116,-6 232,32 -13,-145 -144,-436 -116,-536 34,-120 145,-432 148,-541l-170 -3 -50 49 -663 256zm-1402 275c9,-71 57,-104 72,-162 54,-50 94,-173 235,-248 120,-64 188,-112 361,-127 304,-26 420,12 647,177 76,73 85,82 87,85 0,0 5,-2 7,-4 34,-39 145,-93 181,-106 277,-99 187,-47 525,-195l-446 -9 -653 -3c-109,-1 -202,-15 -320,-12 -170,1 -323,13 -485,12 -86,0 -163,-6 -250,-2 -58,2 -177,20 -209,-22 -57,28 -243,0 -333,3 17,81 3,122 5,187 1,20 5,38 8,64 1,11 -10,24 -1,38 5,8 10,15 15,23 71,101 203,202 348,350l206 -49z"/>
   </g>
   <path class="fil24" d="M3680 3722c266,-1 507,40 783,40l209 6c-7,-45 -15,-54 -12,-109 -94,3 -166,-10 -250,-17 -93,-7 -180,7 -247,7 -63,0 -164,-15 -252,-12 -82,2 -154,10 -239,13l8 72z"/>
   <path class="fil25" d="M3680 4922l9 91c32,42 151,24 209,22 87,-4 164,2 250,2 162,1 315,-11 485,-12l0 -66 -166 -25c-135,-4 -277,-4 -404,-13 -136,-10 -251,10 -383,1z"/>
   <path class="fil11" d="M2862 3633c55,-6 116,-8 175,-8 65,0 109,18 176,13 56,-4 90,5 143,4 49,0 80,-10 132,-10 -49,-20 -60,-12 -118,-12 -15,-29 -26,-142 -167,-151 -85,-6 -87,30 -133,24 -27,-4 -66,-24 -124,-29l-1 -65c-13,50 -98,50 -190,119l140 67c-12,27 -18,31 -33,48z"/>
   <path class="fil26" d="M3054 9384c57,-9 64,-27 106,-7 32,16 28,40 106,31 -44,-27 -53,-46 -117,-75 16,-81 17,4 36,-93 5,-26 85,-85 219,-51 9,49 4,19 -37,60 173,3 94,38 152,51 66,-93 -26,-26 -68,-162 0,0 23,-28 28,-33l-17 -43c38,17 12,-2 39,20l79 -27c-25,-52 -49,-51 -75,-118 43,17 22,0 56,39 24,29 8,26 43,45 34,-11 48,-23 65,-59 -46,-31 -70,-98 -151,-75l-55 31c-43,-54 5,-35 -38,-44l-4 232c-73,4 -47,-22 -26,29 -69,-7 -116,8 -153,3 -63,-8 1,-14 -123,-14 -3,323 -81,139 -65,260z"/>
   <path class="fil27" d="M3698 7486l-11 1481c-1,31 0,61 -2,90 -4,66 4,47 -19,42 11,23 42,86 14,114l11 145c111,5 124,-16 184,67 42,59 4,19 63,63 66,48 16,14 52,86 211,-4 307,22 505,49 -24,-68 -34,-135 -60,-203 -19,-53 -75,-128 -51,-167 36,28 40,60 77,88 -27,-146 -111,-270 -127,-326 87,25 139,241 187,343 3,-93 1,-187 9,-281 7,-94 38,-167 60,-240l-1 -1255c4,-20 4,-21 5,-40 1,-22 -1,-53 -2,-76l81 4c-4,-2 -9,-3 -13,-4l-26 -8c-5,0 -8,-1 -13,-1l-154 1c-105,-5 -529,-3 -585,19l-184 9z"/>
   <path class="fil28" d="M4846 8911c36,22 30,-19 11,46 -1,2 -26,40 -28,43 -22,33 -40,54 -47,94 16,28 43,-1 76,58 48,86 -13,47 -9,88 59,-25 94,-100 127,-100 35,1 -12,-36 23,12 46,-23 19,9 38,-42 -14,63 1,46 23,70 16,-65 -17,-24 32,-46 -3,2 5,68 -17,-7 -13,-44 -7,11 3,-22 38,-138 21,-54 21,-238 -277,0 -193,-9 -253,44z"/>
   <path class="fil29" d="M3794 2141l-7 -6c-13,84 20,217 67,254 27,21 240,55 266,55 18,-117 26,-72 67,-171l70 -183 -139 -1c-22,23 -14,5 -36,41 -51,85 64,213 -156,209 -32,-72 -124,-131 -92,-190l-40 -8z"/>
   <path class="fil30" d="M2862 3633c-45,31 -104,36 -163,35l-14 -32 -102 0c-41,33 -20,17 -30,46 75,41 860,30 1012,34l95 5 7 -71c-102,2 -387,19 -454,-12 -67,5 -111,-13 -176,-13 -59,0 -120,2 -175,8z"/>
   <path class="fil31" d="M3707 6274c42,25 146,2 205,3 81,2 151,14 236,17 82,3 155,-8 236,-7l229 -1 3 -54c-3,-20 -163,-10 -218,-27 -106,-7 -648,-4 -688,16l-3 53z"/>
   <path class="fil20" d="M4942 6059c87,14 188,38 276,-4 -33,-51 -31,-46 -90,-76 -69,-35 -261,-166 -300,-224 -72,17 -10,98 5,112 -17,44 2,8 -19,31 -2,2 -5,6 -7,7 -2,2 -6,5 -8,6 -1,1 -5,3 -7,5 76,34 18,29 62,86 33,43 57,20 88,57z"/>
   <path class="fil32" d="M5270 9513c-28,93 -51,34 -70,132 16,52 3,33 58,50 77,24 206,27 277,-1 7,-42 11,-72 -11,-103 -3,-2 -6,-7 -8,-9 -112,-138 -148,-114 -246,-69z"/>
   <path class="fil33" d="M2061 4656l49 -4c155,9 146,32 315,4 46,-42 152,-19 322,-56 21,-4 40,-6 57,-9l58 -22c-31,-66 -192,-60 -312,-69 -62,-4 -79,-3 -114,-29 74,-36 211,33 307,17 145,-22 172,3 305,26 69,5 177,13 244,-8 48,-15 30,-20 70,-30 63,-15 209,32 320,4 151,-57 193,-8 341,-7 67,1 112,0 181,3 69,4 104,-7 120,-65 -81,-16 -136,15 -221,-23l115 -28c115,-10 253,30 408,-10 326,-84 167,-21 356,-27 76,-2 87,-16 95,-46l-383 -53c-120,26 -216,-60 -290,-106l-102 -49c-188,-120 -49,-19 -154,-74 -205,-96 -78,-39 -250,-30 -53,-91 -70,-64 -156,-102 -26,-20 4,-40 -97,-96 -75,-13 -68,14 -80,-51 -152,-4 -937,7 -1012,-34 -51,45 -79,84 -114,148 -54,-20 -74,3 -96,-53 -17,-42 9,-70 24,-94l-256 2c-10,49 -2,79 -10,117 -13,70 -27,16 -25,99 3,95 23,442 8,508 -19,81 -11,156 -23,247z"/>
   <path class="fil12" d="M3794 2141l40 8c-32,59 60,118 92,190 220,4 105,-124 156,-209 22,-36 14,-18 36,-41 -150,4 -277,22 -324,52z"/>
   <path class="fil34" d="M5958 6097l-182 130 440 1 -26 -99c-116,-38 -73,-66 -232,-32z"/>
   <path class="fil19" d="M4849 9240c-4,-41 57,-2 9,-88 -33,-59 -60,-30 -76,-58 -94,58 -87,291 -93,410 23,-23 25,-24 44,-59l116 -205z"/>
   <path class="fil35" d="M2223 6023c26,46 176,163 218,174l19 -42c-1,-50 -6,-76 21,-125 35,13 23,-7 33,52l33 1 29 -69 -51 -17 -3 -50 -23 0 0 11c-52,111 -137,-5 -276,65z"/>
   <path class="fil36" d="M3643 6758c-52,42 -34,21 -86,33l86 42c-22,39 -52,52 -56,55l82 42c-28,87 -30,-19 -59,69 45,-1 11,30 96,43 -4,-95 -6,-11 -13,-44 -13,-59 11,-10 12,-66l-6 -39c7,-45 43,-140 88,-157 47,63 46,96 31,189 4,-3 8,-14 9,-11 5,7 63,-93 73,-206 -116,6 -195,49 -257,50z"/>
   <path class="fil37" d="M3283 6291l191 1 15 7c47,-35 152,-19 218,-25l3 -53c-72,-6 -182,-7 -255,-8 -58,0 -181,-10 -207,11l35 67z"/>
   <path class="fil38" d="M2346 9508c-14,-62 -12,-125 -2,-188 14,-90 47,-99 26,-144 -104,63 -87,386 -56,446l70 6c4,-58 3,-96 21,-149 18,-52 45,-80 21,-126 -45,45 -57,79 -80,155z"/>
   <path class="fil39" d="M4664 9012c-17,-21 24,-20 -16,-16 -52,85 0,32 -42,45 -29,-32 -8,-6 -20,-58 -41,7 -9,414 6,455 29,-44 66,-139 69,-189l-13 -182c3,-77 -1,-32 16,-55z"/>
   <path class="fil37" d="M2847 6303l31 -8 77 10 55 -4c39,-14 71,-51 85,-109l-74 5 -273 10c17,50 48,73 99,96z"/>
   <path class="fil40" d="M3998 3083c-45,29 -98,33 -140,55 31,17 379,59 452,-7 -25,-8 -14,-2 -43,-16 -57,-27 -18,-2 -51,-32 -59,12 -55,-15 -107,-15 -32,0 -55,15 -111,15z"/>
   <path class="fil36" d="M6435 7014c34,-16 0,6 40,-22 13,-9 13,-12 22,-20 -32,-30 -30,10 -3,-28 14,-19 15,-9 35,-20 -24,-88 -29,-56 17,-125 -26,-47 -35,-39 -71,-72l-83 -66c0,20 7,102 10,112 9,34 22,29 35,83 1,-2 29,-30 -6,0 -1,2 -5,5 -6,6l-19 21c15,9 20,6 27,26 25,75 3,11 -4,37 -11,42 -14,-28 -8,32 0,9 10,25 14,36z"/>
   <path class="fil8" d="M3252 6403c82,-36 3,-56 76,-79 73,94 -12,155 98,177 27,-45 31,-142 48,-209l-191 -1c-19,28 -26,25 -56,42l25 70z"/>
   <path class="fil41" d="M2576 5769c81,7 21,9 68,-77l18 -26c23,28 43,28 55,71 15,-57 7,9 12,-34l-53 -244c-17,10 -35,21 -50,60 -95,257 24,50 -50,250z"/>
   <path class="fil19" d="M3501 9082c56,74 111,172 144,272 4,3 21,11 23,11 27,1 1,6 23,-7l-11 -145c-37,-57 -67,-116 -100,-158l-79 27z"/>
   <path class="fil42" d="M5542 4640c95,27 -9,76 -15,107 47,32 111,-16 149,-38 51,-28 111,-48 111,-122 -45,5 -88,52 -147,33 -59,-19 -37,-35 -120,-39 11,38 12,34 22,59z"/>
   <path class="fil43" d="M6338 5386c14,15 3,56 32,69 17,-28 12,-92 14,-122 -46,-17 -113,-43 -157,-50l80 54c7,62 -67,-21 -69,38 -1,63 64,41 64,41l36 -30z"/>
   <path class="fil44" d="M3853 5169c21,28 36,12 41,36 13,32 -19,17 -19,57 61,1 58,-6 73,-19 11,-10 27,11 61,60 23,-58 -12,-87 -12,-149 -23,-24 -32,5 -55,15 -26,11 -65,4 -89,0z"/>
   <path class="fil45" d="M2119 6353c32,-13 74,-76 219,-27 1,66 10,13 -33,60l63 72c51,-11 52,-14 79,-47 -5,-1 -21,-2 -25,-4 -2,0 -7,-1 -10,-2l-32 -17c28,-79 25,3 51,-85l-311 1 -1 49z"/>
   <path class="fil20" d="M4175 5874c-23,-60 -58,-66 -106,-102 -44,-33 -68,-63 -128,-74 6,47 1,29 27,64 16,20 33,45 55,59 31,21 125,47 152,53z"/>
   <path class="fil46" d="M2832 7476l62 0 -24 -28c76,-40 129,-72 164,-173l-123 20c29,31 8,12 48,38 -40,80 -67,71 -176,83l49 60z"/>
   <path class="fil47" d="M3025 9642l36 -34 -48 -68 -59 6c-53,14 -64,23 -71,84l142 12z"/>
   <path class="fil38" d="M2145 9361c60,133 44,101 74,219 19,76 3,33 40,45 23,-54 4,-112 -19,-163 -45,-100 -42,-96 -95,-101z"/>
   <path class="fil38" d="M3479 9105c8,8 11,9 23,26 7,10 11,16 17,27l78 199c19,23 6,10 37,21 21,-19 7,5 11,-24 -33,-100 -88,-198 -144,-272 -27,-22 -1,-3 -39,-20l17 43z"/>
   <path class="fil45" d="M2787 6355c-44,-2 -36,-15 -36,24 22,22 10,-14 14,21 1,4 -3,29 -4,34 30,16 28,6 44,37l60 12c-10,-22 -21,-36 -22,-37 -8,-15 -6,-5 -13,-27 15,-13 22,-18 45,-29 -6,-58 -7,-45 3,-95l-31 8c12,52 -10,61 -60,52z"/>
   <path class="fil21" d="M6497 6972c38,-20 109,-87 128,-126 -32,-32 -37,-38 -79,-47 -46,69 -41,37 -17,125 -20,11 -21,1 -35,20 -27,38 -29,-2 3,28z"/>
   <path class="fil38" d="M3580 9055c33,42 63,101 100,158 28,-28 -3,-91 -14,-114 -54,-27 -34,-25 -62,-78 -35,-19 -19,-16 -43,-45 -34,-39 -13,-22 -56,-39 26,67 50,66 75,118z"/>
   <path class="fil48" d="M2774 7177c29,76 52,42 85,109 48,-29 46,-11 55,-80 -32,-15 -91,-25 -140,-29z"/>
   <path class="fil49" d="M2783 6637c51,-46 61,-20 96,-93l-100 10c-53,-8 -27,-14 -71,-37 17,51 28,38 57,86l14 26c0,-2 3,5 4,8z"/>
   <path class="fil50" d="M3604 9021c28,53 8,51 62,78 23,5 15,24 19,-42 2,-29 1,-59 2,-90l-18 -5c-17,36 -31,48 -65,59z"/>
   <path class="fil51" d="M2460 6155l60 -50c1,0 27,-22 27,-22l-33 -1c-10,-59 2,-39 -33,-52 -27,49 -22,75 -21,125z"/>
   <path class="fil52" d="M3011 6319l-1 -18 -55 4 0 84c55,-3 66,-12 56,-70z"/>
   <path class="fil19" d="M4742 9084l-67 -3 15 98 52 -95z"/>
   <path class="fil49" d="M2407 6538c-24,-35 10,-31 -79,-43 12,21 24,45 42,72l37 -29z"/>
   <path class="fil53" d="M2761 6434c1,-5 5,-30 4,-34 -4,-35 8,1 -14,-21 0,-39 -8,-26 36,-24l-88 -24c11,22 16,33 26,52l28 42c2,2 5,6 8,9z"/>
   <path class="fil54" d="M3519 9391l37 3 -3 -32 -73 -47c12,40 20,44 39,76z"/>
   <path class="fil34" d="M2555 6199l24 -6 -7 28c23,-19 3,15 31,-33 13,-22 10,-24 15,-46 -40,14 -44,23 -63,57z"/>
   <path class="fil55" d="M2583 3636l102 0 -25 -39 -77 39z"/>
   <path class="fil56" d="M5346 5039l876 13 -182 614 168 531 -634 -35 82 -365 -157 -272 -178 -203 -368 -285 393 2z"/>
   <path class="fil23" d="M3128 5031l229 -12 185 12 0 266 -414 0 0 -266z"/>
  </g>
 </g>
</svg>
