<svg width="251" height="31" viewBox="0 0 251 31" fill="none" xmlns="http://www.w3.org/2000/svg">
<path d="M16.56 11.92H25.32V7.6H16.08V2.12H10.8V7.6H1.56V11.92H10.24V12.28C10.24 16.68 7.44 20.44 0.28 21.68L2.6 25.8C8.08 24.68 11.64 22.08 13.4 18.36C15.16 22.08 18.72 24.68 24.2 25.8L26.56 21.68C19.4 20.44 16.56 16.68 16.56 12.28V11.92ZM35.3969 30V22.08H43.2369V30H35.3969ZM69.7075 30.68C67.7875 30.68 66.0808 30.2933 64.5875 29.52C63.0942 28.72 61.9208 27.56 61.0675 26.04C60.2408 24.52 59.8275 22.6533 59.8275 20.44V19.4H62.8675V20.96C62.8675 23.1467 63.4808 24.8533 64.7075 26.08C65.9608 27.28 67.6275 27.88 69.7075 27.88C71.8142 27.88 73.4808 27.28 74.7075 26.08C75.9608 24.8533 76.5875 23.1467 76.5875 20.96V3.56H63.7075V0.799999H79.6275V20.44C79.6275 22.6533 79.2008 24.52 78.3475 26.04C77.5208 27.56 76.3608 28.72 74.8675 29.52C73.3742 30.2933 71.6542 30.68 69.7075 30.68ZM85.57 30L96.33 0.799999H101.77L112.89 30H109.77L106.25 20.72H91.97L88.61 30H85.57ZM93.01 17.96H105.21L99.73 3.56H98.25L93.01 17.96ZM120.771 30V0.799999H137.251V3.56H123.811V13.8H136.331V16.52H123.811V27.24H137.691V30H120.771ZM151.713 30L143.632 0.799999H146.753L153.833 27.24H155.233L160.993 2.08H165.033L171.473 27.24H172.793L179.233 0.799999H182.273L174.873 30H169.273L163.033 5.72L157.313 30H151.713ZM202.532 30.68C199.999 30.68 197.799 30.2267 195.932 29.32C194.065 28.4133 192.505 27.2133 191.252 25.72C190.025 24.2267 189.105 22.6 188.492 20.84C187.905 19.08 187.612 17.36 187.612 15.68V14.96C187.612 13.1733 187.919 11.4 188.532 9.64C189.172 7.85333 190.119 6.24 191.372 4.8C192.625 3.36 194.185 2.21333 196.052 1.36C197.919 0.479999 200.079 0.0399995 202.532 0.0399995C205.012 0.0399995 207.172 0.479999 209.012 1.36C210.879 2.21333 212.439 3.36 213.692 4.8C214.945 6.24 215.879 7.85333 216.492 9.64C217.132 11.4 217.452 13.1733 217.452 14.96V15.72C217.452 17.4 217.145 19.12 216.532 20.88C215.945 22.6133 215.039 24.2267 213.812 25.72C212.585 27.2133 211.025 28.4133 209.132 29.32C207.265 30.2267 205.065 30.68 202.532 30.68ZM202.532 27.88C204.399 27.88 206.065 27.5467 207.532 26.88C208.999 26.1867 210.239 25.2533 211.252 24.08C212.265 22.88 213.039 21.5333 213.572 20.04C214.105 18.5467 214.372 16.9867 214.372 15.36C214.372 13.0933 213.892 11.0133 212.932 9.12C211.999 7.22667 210.639 5.70666 208.852 4.56C207.092 3.41333 204.985 2.84 202.532 2.84C200.105 2.84 197.999 3.41333 196.212 4.56C194.452 5.70666 193.092 7.22667 192.132 9.12C191.172 11.0133 190.692 13.0933 190.692 15.36C190.692 16.9867 190.959 18.5467 191.492 20.04C192.025 21.5333 192.799 22.88 193.812 24.08C194.852 25.2533 196.105 26.1867 197.572 26.88C199.039 27.5467 200.692 27.88 202.532 27.88ZM226.419 30V0.799999H231.499L247.499 27.24H247.979V0.799999H250.899V30H245.779L229.779 3.56H229.299V30H226.419Z" fill="black"/>
</svg>
